<?xml version="1.0" encoding="UTF-8"?><svg id="b" xmlns="http://www.w3.org/2000/svg" viewBox="0 0 498.92 429.81"><g id="c"><path d="M476.83,149.17q-25-14-25-14c3.19,64.16-115.85,46.39-149.82,48.19-39.22,3.19-31.05,11.97-35.49-8.95C328.74,126.71,290.08-5.39,198.82,.17c-49.51,.25-113.22,26.76-117.09,81.34-17.52,50.63-108.32,1.79-74.08,46.86,15.67,20.01,32.76,17.82,12.18,28.79,3.95,23.95,74.59-9.52,75.35,35.62-162.55,228.57,200.24,297.51,330.21,181.99,47.9-52.31,106.11-166.68,51.44-225.6Z" style="fill:#fff;"/></g></svg>